<?xml version="1.0" standalone="no"?><svg xmlns="http://www.w3.org/2000/svg" viewBox="0 0 1440 320"><path fill="#0e7490" fill-opacity="1" d="M0,64L24,69.3C48,75,96,85,144,90.7C192,96,240,96,288,112C336,128,384,160,432,186.7C480,213,528,235,576,256C624,277,672,299,720,288C768,277,816,235,864,218.7C912,203,960,213,1008,186.7C1056,160,1104,96,1152,85.3C1200,75,1248,117,1296,112C1344,107,1392,53,1416,26.7L1440,0L1440,320L1416,320C1392,320,1344,320,1296,320C1248,320,1200,320,1152,320C1104,320,1056,320,1008,320C960,320,912,320,864,320C816,320,768,320,720,320C672,320,624,320,576,320C528,320,480,320,432,320C384,320,336,320,288,320C240,320,192,320,144,320C96,320,48,320,24,320L0,320Z"></path></svg>