<?xml version="1.0" standalone="no"?><svg xmlns="http://www.w3.org/2000/svg" viewBox="0 0 1440 320"><path fill="#000000" fill-opacity="1" d="M0,64L24,85.3C48,107,96,149,144,170.7C192,192,240,192,288,176C336,160,384,128,432,117.3C480,107,528,117,576,122.7C624,128,672,128,720,117.3C768,107,816,85,864,101.3C912,117,960,171,1008,181.3C1056,192,1104,160,1152,170.7C1200,181,1248,235,1296,234.7C1344,235,1392,181,1416,154.7L1440,128L1440,320L1416,320C1392,320,1344,320,1296,320C1248,320,1200,320,1152,320C1104,320,1056,320,1008,320C960,320,912,320,864,320C816,320,768,320,720,320C672,320,624,320,576,320C528,320,480,320,432,320C384,320,336,320,288,320C240,320,192,320,144,320C96,320,48,320,24,320L0,320Z"></path></svg>