<?xml version="1.0" standalone="no"?><svg xmlns="http://www.w3.org/2000/svg" viewBox="0 0 1440 320"><path fill="#0e7490" fill-opacity="1" d="M0,288L20,250.7C40,213,80,139,120,90.7C160,43,200,21,240,53.3C280,85,320,171,360,181.3C400,192,440,128,480,117.3C520,107,560,149,600,181.3C640,213,680,235,720,229.3C760,224,800,192,840,154.7C880,117,920,75,960,90.7C1000,107,1040,181,1080,197.3C1120,213,1160,171,1200,133.3C1240,96,1280,64,1320,85.3C1360,107,1400,181,1420,218.7L1440,256L1440,0L1420,0C1400,0,1360,0,1320,0C1280,0,1240,0,1200,0C1160,0,1120,0,1080,0C1040,0,1000,0,960,0C920,0,880,0,840,0C800,0,760,0,720,0C680,0,640,0,600,0C560,0,520,0,480,0C440,0,400,0,360,0C320,0,280,0,240,0C200,0,160,0,120,0C80,0,40,0,20,0L0,0Z"></path></svg>